<svg width="100" height="132" viewBox="0 0 100 132" fill="none" xmlns="http://www.w3.org/2000/svg">
<path d="M-197.864 31.76V51.728H-221.928V122H-247.016V51.728H-270.824V31.76H-197.864ZM-192.678 86.032C-192.678 78.608 -191.355 72.1227 -188.71 66.576C-185.979 61.0293 -182.31 56.7627 -177.702 53.776C-173.009 50.7893 -167.803 49.296 -162.086 49.296C-157.137 49.296 -152.87 50.2773 -149.286 52.24C-145.702 54.2027 -142.929 56.848 -140.966 60.176V50.192H-115.878V122H-140.966V112.016C-142.929 115.344 -145.745 117.989 -149.414 119.952C-152.998 121.915 -157.222 122.896 -162.086 122.896C-167.803 122.896 -173.009 121.403 -177.702 118.416C-182.31 115.429 -185.979 111.163 -188.71 105.616C-191.355 99.984 -192.678 93.456 -192.678 86.032ZM-140.966 86.032C-140.966 81.424 -142.246 77.7973 -144.806 75.152C-147.281 72.5067 -150.353 71.184 -154.022 71.184C-157.777 71.184 -160.891 72.5067 -163.366 75.152C-165.841 77.712 -167.078 81.3387 -167.078 86.032C-167.078 90.64 -165.841 94.3093 -163.366 97.04C-160.891 99.6853 -157.777 101.008 -154.022 101.008C-150.353 101.008 -147.281 99.6853 -144.806 97.04C-142.246 94.3947 -140.966 90.7253 -140.966 86.032ZM-105.678 86.032C-105.678 78.608 -104.355 72.1227 -101.71 66.576C-98.9793 61.0293 -95.2673 56.7627 -90.574 53.776C-85.8807 50.7893 -80.6753 49.296 -74.958 49.296C-70.35 49.296 -66.254 50.2773 -62.67 52.24C-59.0007 54.1173 -56.142 56.72 -54.094 60.048V27.28H-28.878V122H-54.094V112.016C-56.0567 115.344 -58.83 117.989 -62.414 119.952C-65.998 121.915 -70.222 122.896 -75.086 122.896C-80.8033 122.896 -86.0087 121.403 -90.702 118.416C-95.31 115.429 -98.9793 111.163 -101.71 105.616C-104.355 99.984 -105.678 93.456 -105.678 86.032ZM-53.966 86.032C-53.966 81.424 -55.246 77.7973 -57.806 75.152C-60.2807 72.5067 -63.3527 71.184 -67.022 71.184C-70.7767 71.184 -73.8913 72.5067 -76.366 75.152C-78.8407 77.712 -80.078 81.3387 -80.078 86.032C-80.078 90.64 -78.8407 94.3093 -76.366 97.04C-73.8913 99.6853 -70.7767 101.008 -67.022 101.008C-63.3527 101.008 -60.2807 99.6853 -57.806 97.04C-55.246 94.3947 -53.966 90.7253 -53.966 86.032ZM76.786 100.624V122H65.906C47.5593 122 38.386 112.912 38.386 94.736V71.056H29.554V50.192H38.386V32.784H63.602V50.192H76.658V71.056H63.602V95.12C63.602 97.0827 64.0287 98.4907 64.882 99.344C65.8207 100.197 67.3567 100.624 69.49 100.624H76.786ZM125.465 43.536C121.028 43.536 117.444 42.3413 114.713 39.952C112.068 37.4773 110.745 34.4053 110.745 30.736C110.745 26.9813 112.068 23.8667 114.713 21.392C117.444 18.9173 121.028 17.68 125.465 17.68C129.817 17.68 133.316 18.9173 135.961 21.392C138.692 23.8667 140.057 26.9813 140.057 30.736C140.057 34.4053 138.692 37.4773 135.961 39.952C133.316 42.3413 129.817 43.536 125.465 43.536ZM137.881 50.192V122H112.793V50.192H137.881ZM190.952 71.056H179.688V122H154.472V71.056H146.664V50.192H154.472V49.552C154.472 40.336 157.16 33.296 162.536 28.432C167.997 23.4827 175.805 21.008 185.96 21.008C188.008 21.008 189.587 21.0507 190.696 21.136V42.512C190.013 42.4267 189.075 42.384 187.88 42.384C185.149 42.384 183.144 43.024 181.864 44.304C180.584 45.4987 179.859 47.4613 179.688 50.192H190.952V71.056ZM277.23 50.192L231.662 156.176H204.398L221.55 118.928L192.11 50.192H220.014L235.118 90.896L249.71 50.192H277.23Z" fill="white"/>
<path d="M49 3L97.4974 71.25H0.502579L49 3Z" fill="#1C2DC5"/>
</svg>
