<svg width="112" height="129" viewBox="0 0 112 129" fill="none" xmlns="http://www.w3.org/2000/svg">
<path d="M-194.864 24.76V44.728H-218.928V115H-244.016V44.728H-267.824V24.76H-194.864ZM-189.678 79.032C-189.678 71.608 -188.355 65.1227 -185.71 59.576C-182.979 54.0293 -179.31 49.7627 -174.702 46.776C-170.009 43.7893 -164.803 42.296 -159.086 42.296C-154.137 42.296 -149.87 43.2773 -146.286 45.24C-142.702 47.2027 -139.929 49.848 -137.966 53.176V43.192H-112.878V115H-137.966V105.016C-139.929 108.344 -142.745 110.989 -146.414 112.952C-149.998 114.915 -154.222 115.896 -159.086 115.896C-164.803 115.896 -170.009 114.403 -174.702 111.416C-179.31 108.429 -182.979 104.163 -185.71 98.616C-188.355 92.984 -189.678 86.456 -189.678 79.032ZM-137.966 79.032C-137.966 74.424 -139.246 70.7973 -141.806 68.152C-144.281 65.5067 -147.353 64.184 -151.022 64.184C-154.777 64.184 -157.891 65.5067 -160.366 68.152C-162.841 70.712 -164.078 74.3387 -164.078 79.032C-164.078 83.64 -162.841 87.3093 -160.366 90.04C-157.891 92.6853 -154.777 94.008 -151.022 94.008C-147.353 94.008 -144.281 92.6853 -141.806 90.04C-139.246 87.3947 -137.966 83.7253 -137.966 79.032ZM-102.678 79.032C-102.678 71.608 -101.355 65.1227 -98.71 59.576C-95.9793 54.0293 -92.2673 49.7627 -87.574 46.776C-82.8807 43.7893 -77.6753 42.296 -71.958 42.296C-67.35 42.296 -63.254 43.2773 -59.67 45.24C-56.0007 47.1173 -53.142 49.72 -51.094 53.048V20.28H-25.878V115H-51.094V105.016C-53.0567 108.344 -55.83 110.989 -59.414 112.952C-62.998 114.915 -67.222 115.896 -72.086 115.896C-77.8033 115.896 -83.0087 114.403 -87.702 111.416C-92.31 108.429 -95.9793 104.163 -98.71 98.616C-101.355 92.984 -102.678 86.456 -102.678 79.032ZM-50.966 79.032C-50.966 74.424 -52.246 70.7973 -54.806 68.152C-57.2807 65.5067 -60.3527 64.184 -64.022 64.184C-67.7767 64.184 -70.8913 65.5067 -73.366 68.152C-75.8407 70.712 -77.078 74.3387 -77.078 79.032C-77.078 83.64 -75.8407 87.3093 -73.366 90.04C-70.8913 92.6853 -67.7767 94.008 -64.022 94.008C-60.3527 94.008 -57.2807 92.6853 -54.806 90.04C-52.246 87.3947 -50.966 83.7253 -50.966 79.032ZM79.786 93.624V115H68.906C50.5593 115 41.386 105.912 41.386 87.736V64.056H32.554V43.192H41.386V25.784H66.602V43.192H79.658V64.056H66.602V88.12C66.602 90.0827 67.0287 91.4907 67.882 92.344C68.8207 93.1973 70.3567 93.624 72.49 93.624H79.786ZM128.465 36.536C124.028 36.536 120.444 35.3413 117.713 32.952C115.068 30.4773 113.745 27.4053 113.745 23.736C113.745 19.9813 115.068 16.8667 117.713 14.392C120.444 11.9173 124.028 10.68 128.465 10.68C132.817 10.68 136.316 11.9173 138.961 14.392C141.692 16.8667 143.057 19.9813 143.057 23.736C143.057 27.4053 141.692 30.4773 138.961 32.952C136.316 35.3413 132.817 36.536 128.465 36.536ZM140.881 43.192V115H115.793V43.192H140.881ZM193.952 64.056H182.688V115H157.472V64.056H149.664V43.192H157.472V42.552C157.472 33.336 160.16 26.296 165.536 21.432C170.997 16.4827 178.805 14.008 188.96 14.008C191.008 14.008 192.587 14.0507 193.696 14.136V35.512C193.013 35.4267 192.075 35.384 190.88 35.384C188.149 35.384 186.144 36.024 184.864 37.304C183.584 38.4987 182.859 40.4613 182.688 43.192H193.952V64.056ZM280.23 43.192L234.662 149.176H207.398L224.55 111.928L195.11 43.192H223.014L238.118 83.896L252.71 43.192H280.23Z" fill="white"/>
<path d="M56 2L104.497 70.25H7.50258L56 2Z" fill="#1DB954"/>
</svg>
