<svg width="428" height="175" viewBox="0 0 428 175" fill="none" xmlns="http://www.w3.org/2000/svg">
<path d="M76.136 37.76V57.728H52.072V128H26.984V57.728H3.176V37.76H76.136ZM81.322 92.032C81.322 84.608 82.6447 78.1227 85.29 72.576C88.0207 67.0293 91.69 62.7627 96.298 59.776C100.991 56.7893 106.197 55.296 111.914 55.296C116.863 55.296 121.13 56.2773 124.714 58.24C128.298 60.2027 131.071 62.848 133.034 66.176V56.192H158.122V128H133.034V118.016C131.071 121.344 128.255 123.989 124.586 125.952C121.002 127.915 116.778 128.896 111.914 128.896C106.197 128.896 100.991 127.403 96.298 124.416C91.69 121.429 88.0207 117.163 85.29 111.616C82.6447 105.984 81.322 99.456 81.322 92.032ZM133.034 92.032C133.034 87.424 131.754 83.7973 129.194 81.152C126.719 78.5067 123.647 77.184 119.978 77.184C116.223 77.184 113.109 78.5067 110.634 81.152C108.159 83.712 106.922 87.3387 106.922 92.032C106.922 96.64 108.159 100.309 110.634 103.04C113.109 105.685 116.223 107.008 119.978 107.008C123.647 107.008 126.719 105.685 129.194 103.04C131.754 100.395 133.034 96.7253 133.034 92.032ZM168.322 92.032C168.322 84.608 169.645 78.1227 172.29 72.576C175.021 67.0293 178.733 62.7627 183.426 59.776C188.119 56.7893 193.325 55.296 199.042 55.296C203.65 55.296 207.746 56.2773 211.33 58.24C214.999 60.1173 217.858 62.72 219.906 66.048V33.28H245.122V128H219.906V118.016C217.943 121.344 215.17 123.989 211.586 125.952C208.002 127.915 203.778 128.896 198.914 128.896C193.197 128.896 187.991 127.403 183.298 124.416C178.69 121.429 175.021 117.163 172.29 111.616C169.645 105.984 168.322 99.456 168.322 92.032ZM220.034 92.032C220.034 87.424 218.754 83.7973 216.194 81.152C213.719 78.5067 210.647 77.184 206.978 77.184C203.223 77.184 200.109 78.5067 197.634 81.152C195.159 83.712 193.922 87.3387 193.922 92.032C193.922 96.64 195.159 100.309 197.634 103.04C200.109 105.685 203.223 107.008 206.978 107.008C210.647 107.008 213.719 105.685 216.194 103.04C218.754 100.395 220.034 96.7253 220.034 92.032ZM272.09 49.536C267.653 49.536 264.069 48.3413 261.338 45.952C258.693 43.4773 257.37 40.4053 257.37 36.736C257.37 32.9813 258.693 29.8667 261.338 27.392C264.069 24.9173 267.653 23.68 272.09 23.68C276.442 23.68 279.941 24.9173 282.586 27.392C285.317 29.8667 286.682 32.9813 286.682 36.736C286.682 40.4053 285.317 43.4773 282.586 45.952C279.941 48.3413 276.442 49.536 272.09 49.536ZM284.506 56.192V128H259.418V56.192H284.506ZM337.577 77.056H326.313V128H301.097V77.056H293.289V56.192H301.097V55.552C301.097 46.336 303.785 39.296 309.161 34.432C314.622 29.4827 322.43 27.008 332.585 27.008C334.633 27.008 336.212 27.0507 337.321 27.136V48.512C336.638 48.4267 335.7 48.384 334.505 48.384C331.774 48.384 329.769 49.024 328.489 50.304C327.209 51.4987 326.484 53.4613 326.313 56.192H337.577V77.056ZM423.855 56.192L378.287 162.176H351.023L368.175 124.928L338.735 56.192H366.639L381.743 96.896L396.335 56.192H423.855Z" fill="white"/>
<path d="M272 6L315.301 68.25H228.699L272 6Z" fill="#1C2DC5"/>
</svg>
