<svg width="482" height="163" viewBox="0 0 482 163" fill="none" xmlns="http://www.w3.org/2000/svg">
<path d="M78.136 31.76V51.728H54.072V122H28.984V51.728H5.176V31.76H78.136ZM83.322 86.032C83.322 78.608 84.6447 72.1227 87.29 66.576C90.0207 61.0293 93.69 56.7627 98.298 53.776C102.991 50.7893 108.197 49.296 113.914 49.296C118.863 49.296 123.13 50.2773 126.714 52.24C130.298 54.2027 133.071 56.848 135.034 60.176V50.192H160.122V122H135.034V112.016C133.071 115.344 130.255 117.989 126.586 119.952C123.002 121.915 118.778 122.896 113.914 122.896C108.197 122.896 102.991 121.403 98.298 118.416C93.69 115.429 90.0207 111.163 87.29 105.616C84.6447 99.984 83.322 93.456 83.322 86.032ZM135.034 86.032C135.034 81.424 133.754 77.7973 131.194 75.152C128.719 72.5067 125.647 71.184 121.978 71.184C118.223 71.184 115.109 72.5067 112.634 75.152C110.159 77.712 108.922 81.3387 108.922 86.032C108.922 90.64 110.159 94.3093 112.634 97.04C115.109 99.6853 118.223 101.008 121.978 101.008C125.647 101.008 128.719 99.6853 131.194 97.04C133.754 94.3947 135.034 90.7253 135.034 86.032ZM170.322 86.032C170.322 78.608 171.645 72.1227 174.29 66.576C177.021 61.0293 180.733 56.7627 185.426 53.776C190.119 50.7893 195.325 49.296 201.042 49.296C205.65 49.296 209.746 50.2773 213.33 52.24C216.999 54.1173 219.858 56.72 221.906 60.048V27.28H247.122V122H221.906V112.016C219.943 115.344 217.17 117.989 213.586 119.952C210.002 121.915 205.778 122.896 200.914 122.896C195.197 122.896 189.991 121.403 185.298 118.416C180.69 115.429 177.021 111.163 174.29 105.616C171.645 99.984 170.322 93.456 170.322 86.032ZM222.034 86.032C222.034 81.424 220.754 77.7973 218.194 75.152C215.719 72.5067 212.647 71.184 208.978 71.184C205.223 71.184 202.109 72.5067 199.634 75.152C197.159 77.712 195.922 81.3387 195.922 86.032C195.922 90.64 197.159 94.3093 199.634 97.04C202.109 99.6853 205.223 101.008 208.978 101.008C212.647 101.008 215.719 99.6853 218.194 97.04C220.754 94.3947 222.034 90.7253 222.034 86.032ZM303.786 100.624V122H292.906C274.559 122 265.386 112.912 265.386 94.736V71.056H256.554V50.192H265.386V32.784H290.602V50.192H303.658V71.056H290.602V95.12C290.602 97.0827 291.029 98.4907 291.882 99.344C292.821 100.197 294.357 100.624 296.49 100.624H303.786ZM327.965 43.536C323.528 43.536 319.944 42.3413 317.213 39.952C314.568 37.4773 313.245 34.4053 313.245 30.736C313.245 26.9813 314.568 23.8667 317.213 21.392C319.944 18.9173 323.528 17.68 327.965 17.68C332.317 17.68 335.816 18.9173 338.461 21.392C341.192 23.8667 342.557 26.9813 342.557 30.736C342.557 34.4053 341.192 37.4773 338.461 39.952C335.816 42.3413 332.317 43.536 327.965 43.536ZM340.381 50.192V122H315.293V50.192H340.381ZM393.452 71.056H382.188V122H356.972V71.056H349.164V50.192H356.972V49.552C356.972 40.336 359.66 33.296 365.036 28.432C370.497 23.4827 378.305 21.008 388.46 21.008C390.508 21.008 392.087 21.0507 393.196 21.136V42.512C392.513 42.4267 391.575 42.384 390.38 42.384C387.649 42.384 385.644 43.024 384.364 44.304C383.084 45.4987 382.359 47.4613 382.188 50.192H393.452V71.056ZM479.73 50.192L434.162 156.176H406.898L424.05 118.928L394.61 50.192H422.514L437.618 90.896L452.21 50.192H479.73Z" fill="#111827"/>
<path d="M278 4L326.497 72.25H229.503L278 4Z" fill="#1DB954"/>
</svg>
